<svg width="512" height="81" viewBox="0 0 512 81" fill="none" xmlns="http://www.w3.org/2000/svg">
<g clip-path="url(#clip0_322_109)">
<path d="M41.968 79.3057L27.9251 79.1405C27.9251 72.3118 29.2192 65.786 31.8075 59.563C34.3959 53.3401 38.1131 47.8055 42.9593 42.9593C47.8055 38.1131 53.3687 34.3959 59.6489 31.8075C65.9291 29.2192 72.4814 27.9802 79.3057 28.0903L79.3057 41.968C74.3494 41.968 69.5858 42.9053 65.015 44.7799C60.4441 46.6545 56.3965 49.3519 52.872 52.872C49.3475 56.3965 46.6501 60.4441 44.7799 65.015C42.9097 69.5858 41.9724 74.3494 41.968 79.3057ZM13.8821 79.3057H0.00440569C-0.105736 68.7322 1.84926 58.5982 5.8694 48.9036C9.88953 39.209 15.6444 30.6191 23.134 23.134C30.6235 15.6444 39.2156 9.88954 48.9102 5.8694C58.6048 1.84926 68.7366 -0.105737 79.3057 0.00440574V13.8821C70.6046 13.8821 62.2615 15.5354 54.2762 18.8418C46.291 22.1482 39.2145 26.8832 33.0466 33.0466C26.8787 39.2145 22.1427 46.2922 18.8385 54.2796C15.5342 62.267 13.8821 70.609 13.8821 79.3057ZM79.3057 79.3057L55.9284 79.2231C55.9284 76.1392 56.5209 73.1786 57.706 70.3414C58.8912 67.5042 60.584 64.9852 62.7846 62.7846C64.9874 60.5818 67.5075 58.8879 70.3447 57.7027C73.1819 56.5176 76.1414 55.9262 79.2231 55.9284L79.3057 79.3057Z" fill="#237195"/>
<path d="M109.952 79.2661V8.4105H88.5227V0H140.599V8.4105H119.169V79.2661H109.952Z" fill="#237195"/>
<path d="M190.567 52.8824H155.312C155.312 58.8735 155.619 63.1747 156.233 65.7862C156.925 68.3977 158.384 70.2027 160.611 71.2012C162.916 72.1997 166.679 72.699 171.902 72.699C176.818 72.699 182.387 72.2765 188.608 71.4316V78.5748C186.534 79.0356 183.731 79.4197 180.198 79.7269C176.741 80.0342 173.362 80.1878 170.059 80.1878C162.992 80.1878 157.808 79.3045 154.505 77.5379C151.202 75.6945 149.013 72.7374 147.938 68.6665C146.94 64.5957 146.44 58.3742 146.44 50.0021C146.44 41.7069 146.901 35.5622 147.823 31.5682C148.745 27.4973 150.818 24.5018 154.044 22.5816C157.347 20.5846 162.532 19.5861 169.598 19.5861C176.203 19.5861 180.966 20.5462 183.884 22.4664C186.803 24.3098 188.646 27.2285 189.414 31.2225C190.183 35.1398 190.567 41.3612 190.567 49.8869V52.8824ZM169.368 27.0749C164.989 27.0749 161.84 27.5357 159.92 28.4574C158.077 29.3791 156.848 31.1457 156.233 33.7572C155.619 36.2919 155.312 40.4779 155.312 46.3153H182.156V45.1632C182.156 39.7098 181.772 35.7542 181.004 33.2964C180.313 30.7617 179.084 29.1103 177.317 28.3422C175.627 27.4973 172.978 27.0749 169.368 27.0749Z" fill="#237195"/>
<path d="M270.535 45.3937C270.535 39.7867 270.266 35.831 269.728 33.5268C269.267 31.1457 268.307 29.5712 266.848 28.8031C265.389 28.035 262.931 27.651 259.474 27.651C255.557 27.651 252.715 28.419 250.949 29.9552C249.182 31.4146 248.068 33.5268 247.608 36.2919C247.147 39.057 246.916 43.2046 246.916 48.7348V79.2661H238.16V45.3937C238.16 39.7867 237.891 35.831 237.354 33.5268C236.893 31.1457 235.933 29.5712 234.473 28.8031C233.014 28.035 230.556 27.651 227.1 27.651C223.259 27.651 220.417 28.4574 218.574 30.0704C216.807 31.6066 215.694 33.7956 215.233 36.6375C214.772 39.4026 214.542 43.435 214.542 48.7348V79.2661H205.785V20.5078H213.62L214.081 28.8031H214.657C215.732 25.8844 217.499 23.6185 219.957 22.0056C222.414 20.3926 225.986 19.5861 230.671 19.5861C235.357 19.5861 238.851 20.3158 241.156 21.7751C243.46 23.1577 245.034 25.5003 245.879 28.8031H246.571C247.646 25.8844 249.451 23.6185 251.986 22.0056C254.597 20.3926 258.245 19.5861 262.931 19.5861C267.539 19.5861 270.996 20.3542 273.3 21.8903C275.604 23.4265 277.179 25.7692 278.024 28.9183C278.868 32.0674 279.291 36.4455 279.291 42.0525V79.2661H270.535V45.3937Z" fill="#237195"/>
<path d="M347.957 79.7269L337.819 27.7662H337.128L326.989 79.7269H303.486L288.508 0.460857H306.481L316.044 59.7952H316.735L328.026 0.460857H347.497L359.018 59.7952H359.709L368.696 0.460857H386.554L371.461 79.7269H347.957Z" fill="#1D1F21"/>
<path d="M400.393 79.7269V0.460857H418.366V79.7269H400.393Z" fill="#1D1F21"/>
<path d="M437.429 79.7269V42.5133V0.460857H483.053V15.3232H455.287V34.3333H479.712V49.3109H455.287V79.7269H437.429Z" fill="#1D1F21"/>
<path d="M494.027 79.7269V0.460857H512V79.7269H494.027Z" fill="#1D1F21"/>
</g>
<defs>
<clipPath id="clip0_322_109">
<rect width="512" height="80.1878" fill="white"/>
</clipPath>
</defs>
</svg>
