<svg width="33" height="25" viewBox="0 0 33 25" fill="none" xmlns="http://www.w3.org/2000/svg">
<g clip-path="url(#clip0_434_88)">
<path d="M3.89501 11.6141V1.53213H0.845825V0.335403H8.25566V1.53213H5.20648V11.6141H3.89501Z" fill="#237195"/>
<path d="M15.3655 7.85999H10.3492C10.3492 8.71245 10.3929 9.32447 10.4803 9.69606C10.5787 10.0676 10.7863 10.3245 11.1033 10.4666C11.4311 10.6086 11.9666 10.6797 12.7098 10.6797C13.4093 10.6797 14.2016 10.6196 15.0869 10.4993V11.5157C14.7918 11.5813 14.3929 11.636 13.8901 11.6797C13.3983 11.7234 12.9175 11.7452 12.4475 11.7452C11.4421 11.7452 10.7043 11.6196 10.2344 11.3682C9.76446 11.1059 9.45298 10.6851 9.29998 10.1059C9.1579 9.52666 9.08686 8.64142 9.08686 7.45016C9.08686 6.26983 9.15243 5.39551 9.28358 4.82721C9.41473 4.24797 9.70981 3.82174 10.1688 3.54852C10.6388 3.26437 11.3765 3.12229 12.3819 3.12229C13.3218 3.12229 13.9994 3.2589 14.4147 3.53213C14.83 3.79442 15.0923 4.20972 15.2016 4.77803C15.3109 5.3354 15.3655 6.22065 15.3655 7.43376V7.85999ZM12.3492 4.18786C11.7262 4.18786 11.2781 4.25344 11.0049 4.38458C10.7426 4.51573 10.5677 4.7671 10.4803 5.13868C10.3929 5.49934 10.3492 6.09497 10.3492 6.92557H14.1688V6.76163C14.1688 5.98568 14.1142 5.42284 14.0049 5.07311C13.9065 4.71245 13.7317 4.47748 13.4803 4.36819C13.2399 4.24797 12.8628 4.18786 12.3492 4.18786Z" fill="#237195"/>
<path d="M26.7441 6.79442C26.7441 5.99661 26.7059 5.43376 26.6294 5.1059C26.5638 4.7671 26.4272 4.54305 26.2195 4.43376C26.0119 4.32447 25.6622 4.26983 25.1704 4.26983C24.613 4.26983 24.2086 4.37912 23.9573 4.5977C23.7059 4.80535 23.5474 5.1059 23.4818 5.49934C23.4163 5.89278 23.3835 6.48294 23.3835 7.26983V11.6141H22.1376V6.79442C22.1376 5.99661 22.0993 5.43376 22.0228 5.1059C21.9573 4.7671 21.8206 4.54305 21.613 4.43376C21.4053 4.32447 21.0556 4.26983 20.5638 4.26983C20.0174 4.26983 19.613 4.38458 19.3507 4.61409C19.0993 4.83267 18.9409 5.14415 18.8753 5.54852C18.8097 5.94196 18.7769 6.51573 18.7769 7.26983V11.6141H17.531V3.25344H18.6458L18.7113 4.43376H18.7933C18.9463 4.01846 19.1977 3.69606 19.5474 3.46655C19.8971 3.23704 20.4053 3.12229 21.072 3.12229C21.7387 3.12229 22.2359 3.22611 22.5638 3.43376C22.8917 3.63049 23.1157 3.96382 23.2359 4.43376H23.3343C23.4873 4.01846 23.7441 3.69606 24.1048 3.46655C24.4764 3.23704 24.9955 3.12229 25.6622 3.12229C26.3179 3.12229 26.8097 3.23158 27.1376 3.45016C27.4654 3.66874 27.6895 4.00207 27.8097 4.45016C27.9299 4.89825 27.99 5.5212 27.99 6.31901V11.6141H26.7441V6.79442Z" fill="#237195"/>
<path d="M9.30484 24.3354L7.86222 16.942H7.76386L6.32123 24.3354H2.97697L0.845825 13.0567H3.4032L4.76386 21.4993H4.86222L6.46877 13.0567H9.23927L10.8786 21.4993H10.977L12.2557 13.0567H14.7966L12.6491 24.3354H9.30484Z" fill="#3F3F46"/>
<path d="M16.7658 24.3354V13.0567H19.3232V24.3354H16.7658Z" fill="#3F3F46"/>
<path d="M22.0356 24.3354V19.0403V13.0567H28.5274V15.1715H24.5766V17.8764H28.052V20.0075H24.5766V24.3354H22.0356Z" fill="#3F3F46"/>
<path d="M30.0889 24.3354V13.0567H32.6463V24.3354H30.0889Z" fill="#3F3F46"/>
</g>
<defs>
<clipPath id="clip0_434_88">
<rect width="31.8005" height="24" fill="white" transform="translate(0.845825 0.335403)"/>
</clipPath>
</defs>
</svg>
