<svg width="48" height="48" viewBox="0 0 48 48" fill="none" xmlns="http://www.w3.org/2000/svg">
<path d="M24 15.2727C26.3146 15.2727 28.5344 16.1922 30.1711 17.8289C31.8078 19.4656 32.7273 21.6854 32.7273 24C32.7273 26.3146 31.8078 28.5344 30.1711 30.1711C28.5344 31.8078 26.3146 32.7273 24 32.7273C21.6854 32.7273 19.4656 31.8078 17.8289 30.1711C16.1922 28.5344 15.2727 26.3146 15.2727 24C15.2727 21.6854 16.1922 19.4656 17.8289 17.8289C19.4656 16.1922 21.6854 15.2727 24 15.2727ZM4.47273 26.1818H0V21.8182H4.47273C5.45455 12.72 12.72 5.45455 21.8182 4.47273V0H26.1818V4.47273C35.28 5.45455 42.5455 12.72 43.5273 21.8182H48V26.1818H43.5273C42.5455 35.28 35.28 42.5455 26.1818 43.5273V48H21.8182V43.5273C12.72 42.5455 5.45455 35.28 4.47273 26.1818ZM24 8.72727C19.9494 8.72727 16.0647 10.3364 13.2006 13.2006C10.3364 16.0647 8.72727 19.9494 8.72727 24C8.72727 28.0506 10.3364 31.9353 13.2006 34.7994C16.0647 37.6636 19.9494 39.2727 24 39.2727C28.0506 39.2727 31.9353 37.6636 34.7994 34.7994C37.6636 31.9353 39.2727 28.0506 39.2727 24C39.2727 19.9494 37.6636 16.0647 34.7994 13.2006C31.9353 10.3364 28.0506 8.72727 24 8.72727Z" fill="#C4C4CC"/>
</svg>
