<svg width="48" height="48" viewBox="0 0 48 48" fill="none" xmlns="http://www.w3.org/2000/svg">
<path fill-rule="evenodd" clip-rule="evenodd" d="M10.2866 0C7.55908 -2.01117e-07 4.94325 1.08322 3.01426 3.01147C1.08527 4.93972 0.00104742 7.55513 0 10.2826V37.7134C0 40.4416 1.08376 43.058 3.01286 44.9871C4.94197 46.9162 7.5584 48 10.2866 48H37.7174C40.4449 47.999 43.0603 46.9147 44.9885 44.9857C46.9168 43.0567 48 40.4409 48 37.7134V10.2826C47.999 7.55581 46.9153 4.941 44.9871 3.01286C43.059 1.08473 40.4442 0.00104696 37.7174 0H10.2866ZM40.6762 10.2984C40.6762 11.0842 40.364 11.8378 39.8084 12.3934C39.2528 12.949 38.4992 13.2611 37.7134 13.2611C36.9277 13.2611 36.1741 12.949 35.6185 12.3934C35.0629 11.8378 34.7507 11.0842 34.7507 10.2984C34.7507 9.51265 35.0629 8.75907 35.6185 8.20345C36.1741 7.64784 36.9277 7.33569 37.7134 7.33569C38.4992 7.33569 39.2528 7.64784 39.8084 8.20345C40.364 8.75907 40.6762 9.51265 40.6762 10.2984ZM24.0059 15.7814C21.8267 15.7814 19.7368 16.6471 18.1959 18.188C16.655 19.7289 15.7893 21.8188 15.7893 23.998C15.7893 26.1772 16.655 28.2671 18.1959 29.808C19.7368 31.349 21.8267 32.2146 24.0059 32.2146C26.1851 32.2146 28.275 31.349 29.8159 29.808C31.3569 28.2671 32.2225 26.1772 32.2225 23.998C32.2225 21.8188 31.3569 19.7289 29.8159 18.188C28.275 16.6471 26.1851 15.7814 24.0059 15.7814ZM11.8351 23.998C11.8351 20.7712 13.1169 17.6765 15.3987 15.3947C17.6804 13.113 20.7751 11.8311 24.002 11.8311C27.2288 11.8311 30.3235 13.113 32.6053 15.3947C34.887 17.6765 36.1689 20.7712 36.1689 23.998C36.1689 27.2249 34.887 30.3196 32.6053 32.6013C30.3235 34.8831 27.2288 36.1649 24.002 36.1649C20.7751 36.1649 17.6804 34.8831 15.3987 32.6013C13.1169 30.3196 11.8351 27.2249 11.8351 23.998Z" fill="#C4C4CC"/>
</svg>
