<svg width="48" height="48" viewBox="0 0 48 48" fill="none" xmlns="http://www.w3.org/2000/svg">
<path d="M39.0019 19.4971C39.0019 23.7996 37.605 27.7741 35.2517 30.9986L47.121 42.875C48.293 44.0467 48.293 45.9495 47.121 47.1212C45.9491 48.2929 44.0459 48.2929 42.874 47.1212L31.0046 35.2448C27.7795 37.607 23.8043 38.9943 19.501 38.9943C8.72855 38.9943 0 30.2674 0 19.4971C0 8.72685 8.72855 0 19.501 0C30.2734 0 39.0019 8.72685 39.0019 19.4971ZM19.501 32.9952C21.2739 32.9952 23.0295 32.646 24.6674 31.9677C26.3054 31.2894 27.7937 30.2951 29.0474 29.0417C30.301 27.7883 31.2955 26.3003 31.9739 24.6626C32.6524 23.025 33.0016 21.2697 33.0016 19.4971C33.0016 17.7246 32.6524 15.9693 31.9739 14.3317C31.2955 12.694 30.301 11.206 29.0474 9.9526C27.7937 8.69919 26.3054 7.70494 24.6674 7.0266C23.0295 6.34826 21.2739 5.99912 19.501 5.99912C17.728 5.99912 15.9724 6.34826 14.3345 7.0266C12.6965 7.70494 11.2082 8.69919 9.95454 9.9526C8.70089 11.206 7.70644 12.694 7.02797 14.3317C6.3495 15.9693 6.00029 17.7246 6.00029 19.4971C6.00029 21.2697 6.3495 23.025 7.02797 24.6626C7.70644 26.3003 8.70089 27.7883 9.95454 29.0417C11.2082 30.2951 12.6965 31.2894 14.3345 31.9677C15.9724 32.646 17.728 32.9952 19.501 32.9952Z" fill="#C4C4CC"/>
</svg>
