<svg width="49" height="48" viewBox="0 0 49 48" fill="none" xmlns="http://www.w3.org/2000/svg">
<path d="M40.3591 42.6667H8.35913C6.89246 42.6667 5.69246 41.4667 5.69246 40V8C5.69246 6.53333 6.89246 5.33333 8.35913 5.33333H21.6925C23.1591 5.33333 24.3591 4.13333 24.3591 2.66667C24.3591 1.2 23.1591 0 21.6925 0H5.69246C4.27798 0 2.92142 0.561903 1.92123 1.5621C0.921034 2.56229 0.359131 3.91885 0.359131 5.33333V42.6667C0.359131 45.6 2.75913 48 5.69246 48H43.0258C45.9591 48 48.3591 45.6 48.3591 42.6667V26.6667C48.3591 25.2 47.1591 24 45.6925 24C44.2258 24 43.0258 25.2 43.0258 26.6667V40C43.0258 41.4667 41.8258 42.6667 40.3591 42.6667ZM29.6925 2.66667C29.6925 4.13333 30.8925 5.33333 32.3591 5.33333H39.2658L14.9191 29.68C14.4205 30.1786 14.1404 30.8549 14.1404 31.56C14.1404 32.2651 14.4205 32.9414 14.9191 33.44C15.4177 33.9386 16.094 34.2187 16.7991 34.2187C17.5043 34.2187 18.1805 33.9386 18.6791 33.44L43.0258 9.09333V16C43.0258 17.4667 44.2258 18.6667 45.6925 18.6667C47.1591 18.6667 48.3591 17.4667 48.3591 16V2.66667C48.3591 1.2 47.1591 0 45.6925 0H32.3591C30.8925 0 29.6925 1.2 29.6925 2.66667Z" fill="#C4C4CC"/>
</svg>
